<?xml version="1.0" encoding="UTF-8"?>
<svg id="_图层_2" data-name="图层 2" xmlns="http://www.w3.org/2000/svg" viewBox="0 0 34 34">
  <defs>
    <style>
      .cls-1 {
        fill: #aa381e;
      }
    </style>
  </defs>
  <g id="Layer_1" data-name="Layer 1">
    <g>
      <path class="cls-1" d="M2.62,0H0v34h2.62v-5.23h5.23v-7.85H2.62v-2.62h5.23v-7.85H2.62v-2.62h5.23V0H2.62ZM5.23,23.54v2.62h-2.62v-2.62h2.62ZM5.23,13.08v2.62h-2.62v-2.62h2.62ZM5.23,5.23h-2.62v-2.62h2.62v2.62Z"/>
      <path class="cls-1" d="M20.92,2.62v2.62h-2.62V0h-2.62v5.23h-2.62V0h-2.62v7.85h5.23v2.62h-5.23v13.08h5.23v2.62h-5.23v7.85h2.62v-5.23h2.62v5.23h2.62v-5.23h2.62v5.23h2.62v-7.85h-5.23v-2.62h5.23v-13.08h-5.23v-2.62h5.23V0h-2.62v2.62ZM13.08,13.08h2.62v2.62h-2.62v-2.62ZM13.08,20.92v-2.62h2.62v2.62h-2.62ZM20.92,20.92h-2.62v-2.62h2.62v2.62ZM20.92,13.08v2.62h-2.62v-2.62h2.62Z"/>
      <path class="cls-1" d="M31.38,0v5.23h-5.23v7.85h5.23v2.62h-5.23v7.85h5.23v2.62h-5.23v7.85h7.85V0h-2.62ZM31.38,31.38h-2.62v-2.62h2.62v2.62ZM31.38,20.92h-2.62v-2.62h2.62v2.62ZM31.38,10.46h-2.62v-2.62h2.62v2.62Z"/>
    </g>
  </g>
</svg>