<?xml version="1.0" encoding="UTF-8"?>
<svg id="_图层_2" data-name="图层 2" xmlns="http://www.w3.org/2000/svg" viewBox="0 0 165.9 34">
  <defs>
    <style>
      .cls-1 {
        fill: #aa381e;
      }

      .cls-2 {
        fill: #aa381e;
      }
    </style>
  </defs>
  <g id="Layer_1" data-name="Layer 1">
    <g>
      <path class="cls-1" d="M2.62,0H0v34h2.62v-5.23h5.23v-7.85H2.62v-2.62h5.23v-7.85H2.62v-2.62h5.23V0H2.62ZM5.23,23.54v2.62h-2.62v-2.62h2.62ZM5.23,13.08v2.62h-2.62v-2.62h2.62ZM5.23,5.23h-2.62v-2.62h2.62v2.62Z"/>
      <path class="cls-1" d="M20.92,2.62v2.62h-2.62V0h-2.62v5.23h-2.62V0h-2.62v7.85h5.23v2.62h-5.23v13.08h5.23v2.62h-5.23v7.85h2.62v-5.23h2.62v5.23h2.62v-5.23h2.62v5.23h2.62v-7.85h-5.23v-2.62h5.23v-13.08h-5.23v-2.62h5.23V0h-2.62v2.62ZM13.08,13.08h2.62v2.62h-2.62v-2.62ZM13.08,20.92v-2.62h2.62v2.62h-2.62ZM20.92,20.92h-2.62v-2.62h2.62v2.62ZM20.92,13.08v2.62h-2.62v-2.62h2.62Z"/>
      <path class="cls-1" d="M31.38,0v5.23h-5.23v7.85h5.23v2.62h-5.23v7.85h5.23v2.62h-5.23v7.85h7.85V0h-2.62ZM31.38,31.38h-2.62v-2.62h2.62v2.62ZM31.38,20.92h-2.62v-2.62h2.62v2.62ZM31.38,10.46h-2.62v-2.62h2.62v2.62Z"/>
    </g>
    <g>
      <path class="cls-2" d="M56.48,18.8c0,2.4-1.42,4.39-6.98,5.45-.24-.55-.94-1.61-1.37-2.02,5.11-.84,5.98-2.02,5.98-3.53v-1.39h2.38v1.49ZM64.79,7.11c.26,7.58,1.2,13.95,3.07,13.95.38,0,.58-1.15.67-3.17.55.74,1.27,1.56,1.85,2.02-.36,3.07-1.1,4.18-2.69,4.18-4.15,0-5.33-7.75-5.66-16.97h-13.44v-2.5h13.37c-.02-.94-.05-1.9-.05-2.88h2.81v2.88h1.66c-.34-.62-.91-1.42-1.44-1.97l2.18-1.1c.67.67,1.44,1.61,1.75,2.3l-1.49.77h2.3v2.5h-4.9ZM48.95,11.21h12.67v2.16h-12.67v-2.16ZM58.02,20v-3.53h-5.52v3.58h-2.57v-5.76h10.78v5.71h-2.69ZM60.73,8.09v2.16h-10.75v-2.16h10.75ZM57.3,20.16c1.78.65,3.94,1.78,5.16,2.62l-1.78,1.58c-1.15-.89-3.34-2.09-5.11-2.79l1.73-1.42Z"/>
      <path class="cls-2" d="M79.76,2.62c-.55,1.56-1.3,3.14-2.11,4.68v16.87h-2.76v-12.48c-.6.77-1.2,1.51-1.82,2.18-.24-.72-1.01-2.26-1.46-3,2.18-2.18,4.3-5.64,5.52-9.07l2.64.82ZM94.36,20.62v2.66h-15.63v-2.66h3c.41-2.02.79-4.44,1.18-6.96h-3.02v-2.66h3.41c.24-1.63.46-3.31.62-4.85h-4.18v-2.66h13.8v2.66h-6.7c-.19,1.56-.41,3.22-.65,4.85h3.62l.46-.1,2.16.14c-.14,2.86-.46,6.38-.77,9.58h2.69ZM85.79,13.66c-.38,2.54-.74,4.97-1.13,6.96h4.13c.24-2.33.46-4.9.6-6.96h-3.6Z"/>
      <path class="cls-2" d="M118.05,21.22v2.23h-21.77v-2.23h5.83c-.17-.46-.38-.96-.62-1.37l1.46-.24h-3.5v-4.97h15.14v4.97h-3.53l1.75.29-.65,1.32h5.88ZM105.59,5.19h-9.07v-2.09h9.07v-1.37h2.88v1.37h9.29v2.09h-9.29v1.01h7.18v1.97h-17.04v-1.97h6.99v-1.01ZM114.66,13.35v-2.23h-15.27v2.23h-2.62v-4.3h20.62v4.3h-2.74ZM100.48,13.73v-1.73h13.06v1.73h-13.06ZM102.16,17.79h9.55v-1.34h-9.55v1.34ZM104.22,19.61c.29.5.6,1.13.74,1.61h4.3c.24-.53.43-1.13.6-1.61h-5.64Z"/>
      <path class="cls-2" d="M133.31,12.2c-.14.1-.31.22-.48.31,2.5.94,6.6,1.82,9.79,2.21-.6.55-1.34,1.58-1.73,2.26-3.17-.6-7.42-1.9-10.2-3.24-2.9,1.46-6.41,2.62-9.55,3.34-.34-.62-.94-1.56-1.54-2.16,4.01-.74,8.98-2.23,11.62-4.06l2.09,1.34ZM123.11,9.82h-2.52v-4.46h9.05v-.82h-7.44v-2.02h17.74v2.02h-7.49v.82h9.22v4.46h-2.64v-2.69h-6.58v3.62h-2.81v-3.62h-6.53v2.69ZM139.74,17.84c-1.32,1.34-3.46,2.62-5.42,3.65.98.34,1.92.67,2.64.94l-1.13,2.06c-2.33-1.08-6.98-2.54-10.42-3.38l1.08-1.73c1.34.29,2.95.67,4.54,1.1,1.22-.48,2.59-1.08,3.79-1.75h-11.83v-2.02h7.49c-.43-.48-1.01-1.01-1.49-1.39l1.66-1.22c.77.58,1.75,1.42,2.21,1.99l-.79.62h5.47l.38-.14,1.82,1.27ZM123.37,10.35h5.52v1.61h-5.52v-1.61ZM128.87,7.95v1.54h-4.97v-1.54h4.97ZM138.21,7.95v1.54h-5.02v-1.54h5.02ZM133.19,10.35h5.59v1.61h-5.59v-1.61Z"/>
      <path class="cls-2" d="M154.88,12.96c-1.42,2.42-3.07,4.75-4.7,6.67l9.58-.58c-.77-1.15-1.56-2.33-2.28-3.36l2.62-1.37c1.99,2.64,4.27,6.05,5.47,8.3l-2.78,1.68c-.36-.72-.79-1.58-1.34-2.52-12.07.94-13.78,1.03-15.07,1.51-.17-.65-.72-2.28-1.1-3.19.67-.19,1.18-.72,1.97-1.61.65-.7,2.23-2.98,3.58-5.54h-6.5v-2.98h21.6v2.98h-11.02ZM163.43,6.24h-16.42v-2.93h16.42v2.93Z"/>
    </g>
    <g>
      <path class="cls-2" d="M93.72,30.95l.61-.74c.32.27.73.46,1.08.46.4,0,.58-.15.58-.39,0-.26-.25-.34-.63-.5l-.57-.24c-.47-.19-.91-.58-.91-1.22,0-.75.67-1.35,1.62-1.35.52,0,1.06.2,1.45.59l-.53.67c-.29-.22-.57-.34-.92-.34s-.53.13-.53.37.28.34.68.5l.56.22c.55.22.88.59.88,1.22,0,.74-.62,1.4-1.7,1.4-.58,0-1.21-.22-1.67-.64Z"/>
      <path class="cls-2" d="M97.56,29.8c0-1.11.79-1.79,1.62-1.79.98,0,1.46.71,1.46,1.65,0,.19-.02.38-.05.46h-2c.1.47.42.66.85.66.25,0,.47-.07.72-.22l.35.64c-.35.25-.82.39-1.22.39-.98,0-1.73-.66-1.73-1.79ZM99.73,29.42c0-.34-.15-.59-.54-.59-.29,0-.55.19-.62.59h1.16Z"/>
      <path class="cls-2" d="M101.1,30.55c0-.72.56-1.11,1.89-1.25-.02-.28-.17-.44-.52-.44-.27,0-.55.11-.89.3l-.37-.7c.45-.27.93-.45,1.47-.45.88,0,1.38.49,1.38,1.56v1.94h-.87l-.08-.34h-.02c-.28.25-.6.43-.98.43-.63,0-1.01-.47-1.01-1.04ZM102.99,30.49v-.55c-.67.09-.88.28-.88.52,0,.2.14.29.37.29s.36-.1.52-.27Z"/>
      <path class="cls-2" d="M104.88,28.09h.87l.07.59h.03c.25-.46.63-.68.97-.68.2,0,.32.03.41.07l-.18.92c-.12-.03-.22-.05-.37-.05-.25,0-.56.16-.74.61v1.95h-1.06v-3.41Z"/>
      <path class="cls-2" d="M108.54,29.21l-1.16-2.17h1.19l.36.8c.1.21.2.44.32.73h.02c.1-.29.2-.52.29-.73l.32-.8h1.13l-1.15,2.21,1.23,2.25h-1.19l-.41-.87c-.11-.23-.21-.47-.33-.74h-.02c-.11.28-.2.51-.31.74l-.38.87h-1.15l1.23-2.3Z"/>
      <path class="cls-2" d="M111.69,27.04h1.09l1.11,2.13.44.99h.03c-.06-.47-.14-1.12-.14-1.65v-1.48h1.02v4.46h-1.09l-1.1-2.15-.44-.98h-.03c.05.5.14,1.11.14,1.65v1.48h-1.02v-4.46Z"/>
      <path class="cls-2" d="M116.07,29.3c0-1.49,1-2.34,2.19-2.34.65,0,1.12.28,1.43.58l-.57.68c-.21-.2-.45-.35-.82-.35-.66,0-1.13.52-1.13,1.38s.4,1.4,1.22,1.4c.16,0,.33-.04.43-.11v-.72h-.71v-.88h1.66v2.09c-.31.3-.86.55-1.49.55-1.24,0-2.21-.78-2.21-2.29Z"/>
    </g>
  </g>
</svg>